<svg width="46" height="53" viewBox="0 0 46 53" fill="none" xmlns="http://www.w3.org/2000/svg">
<path d="M44.3571 19.5223L26.2721 1.43733C24.4025 -0.432345 21.3601 -0.432451 19.4903 1.43733C17.8095 3.11801 17.6648 5.6813 18.906 7.51164L18.8808 7.63753C17.5769 14.1574 14.4026 20.0888 9.70084 24.7905L1.40573 33.0856C-0.468418 34.9598 -0.468738 37.9931 1.40573 39.8674L5.92685 44.3885C7.8009 46.2626 10.8344 46.2627 12.7086 44.3885L13.839 43.2581L21.7511 51.1703C23.6252 53.0445 26.6585 53.0446 28.5328 51.1703C30.4025 49.3006 30.4025 46.2583 28.5328 44.3886L25.1419 40.9977L26.2722 39.8674C28.1463 37.9933 28.1466 34.96 26.2722 33.0857L25.5041 32.3175C29.2828 29.6719 33.5742 27.83 38.157 26.9134L38.2845 26.8879C40.1555 28.1512 42.7129 27.9481 44.3571 26.3039H44.3572C46.2267 24.4343 46.2267 21.3921 44.3571 19.5223ZM10.4481 42.1279C9.82343 42.7525 8.81206 42.7526 8.18741 42.1278L3.66629 37.6067C3.04154 36.9818 3.04154 35.9709 3.66629 35.3461L11.5783 27.434L18.3601 34.2158C17.586 34.9899 11.2412 41.3346 10.4481 42.1279ZM26.2721 46.649C26.8952 47.2722 26.8952 48.2863 26.2721 48.9096C25.6489 49.5327 24.6347 49.5327 24.0115 48.9096L16.0994 40.9975L18.3601 38.7369L26.2721 46.649ZM20.6206 36.4764C21.1012 35.9958 21.8205 35.2598 22.9557 34.2902L24.0115 35.3461C24.6363 35.9709 24.6363 36.9818 24.0115 37.6067L22.8812 38.737L20.6206 36.4764ZM20.6885 32.0233L13.7707 25.1055C17.478 20.8247 20.1329 15.7716 21.5532 10.2819L35.5121 24.2408C30.0224 25.661 24.9694 28.3159 20.6885 32.0233ZM42.0962 24.0432C41.4715 24.6679 40.4604 24.6679 39.8357 24.0432L21.7509 5.95845C21.1261 5.33359 21.1261 4.32264 21.7509 3.69789C22.3756 3.07314 23.3868 3.07314 24.0115 3.69789L42.0962 21.7826C42.7194 22.4058 42.7194 23.4199 42.0962 24.0432Z" fill="#FC6652"/>
<path d="M12.7072 33.0877C12.0831 32.4635 11.0709 32.4635 10.4467 33.0877L8.18609 35.3482C7.56187 35.9725 7.56187 36.9846 8.18609 37.6088C8.8102 38.233 9.82254 38.233 10.4467 37.6088L12.7072 35.3482C13.3314 34.724 13.3314 33.7119 12.7072 33.0877Z" fill="#FC6652"/>
</svg>
