<svg width="100" height="100" viewBox="0 0 100 100" fill="none" xmlns="http://www.w3.org/2000/svg">
<rect x="0.5" y="0.5" width="99" height="99" rx="19.5" stroke="#DCDCDC"/>
<path d="M52.0718 53H48.5618V37.55L45.2918 40.94L43.2518 38.81L49.0118 32.99H52.0718V53Z" fill="#ECECEC"/>
<path d="M49.3304 63H48.0704V59.22C48.0704 58.524 47.7544 58.176 47.1224 58.176C46.8584 58.176 46.6024 58.252 46.3544 58.404C46.1064 58.556 45.9144 58.736 45.7784 58.944V63H44.5184V59.22C44.5184 58.524 44.1984 58.176 43.5584 58.176C43.3024 58.176 43.0504 58.252 42.8024 58.404C42.5624 58.556 42.3704 58.74 42.2264 58.956V63H40.9664V57.204H42.2264V57.996C42.3704 57.78 42.6184 57.572 42.9704 57.372C43.3304 57.164 43.7104 57.06 44.1104 57.06C44.9504 57.06 45.4784 57.416 45.6944 58.128C45.8784 57.84 46.1504 57.592 46.5104 57.384C46.8704 57.168 47.2544 57.06 47.6624 57.06C48.7744 57.06 49.3304 57.644 49.3304 58.812V63ZM51.5865 56.496C51.3785 56.496 51.1945 56.42 51.0345 56.268C50.8825 56.116 50.8065 55.932 50.8065 55.716C50.8065 55.5 50.8825 55.316 51.0345 55.164C51.1945 55.012 51.3785 54.936 51.5865 54.936C51.8025 54.936 51.9865 55.012 52.1385 55.164C52.2905 55.316 52.3665 55.5 52.3665 55.716C52.3665 55.932 52.2905 56.116 52.1385 56.268C51.9865 56.42 51.8025 56.496 51.5865 56.496ZM52.2225 63H50.9625V57.204H52.2225V63ZM59.029 63H57.769V59.376C57.769 58.576 57.381 58.176 56.605 58.176C56.301 58.176 56.017 58.252 55.753 58.404C55.489 58.556 55.277 58.74 55.117 58.956V63H53.857V57.204H55.117V57.996C55.333 57.74 55.621 57.52 55.981 57.336C56.341 57.152 56.733 57.06 57.157 57.06C57.773 57.06 58.237 57.22 58.549 57.54C58.869 57.86 59.029 58.32 59.029 58.92V63Z" fill="#ECECEC"/>
<circle cx="50" cy="49" r="28.5" stroke="#DCDCDC"/>
<line x1="50.4" y1="23.4" x2="50.4" y2="27.6" stroke="#DCDCDC" stroke-width="0.8" stroke-linecap="round"/>
<line x1="75.6" y1="49.4" x2="71.4" y2="49.4" stroke="#DCDCDC" stroke-width="0.8" stroke-linecap="round"/>
<line x1="28.6" y1="49.4" x2="24.4" y2="49.4" stroke="#DCDCDC" stroke-width="0.8" stroke-linecap="round"/>
<line x1="50.4" y1="70.4" x2="50.4" y2="74.6" stroke="#DCDCDC" stroke-width="0.8" stroke-linecap="round"/>
<line x1="34.5355" y1="64.5657" x2="31.5657" y2="67.5355" stroke="#DCDCDC" stroke-width="0.8" stroke-linecap="round"/>
<line x1="68.5355" y1="31.5657" x2="65.5657" y2="34.5355" stroke="#DCDCDC" stroke-width="0.8" stroke-linecap="round"/>
<line x1="0.4" y1="-0.4" x2="4.6" y2="-0.4" transform="matrix(0.707107 0.707107 0.707107 -0.707107 65 64)" stroke="#DCDCDC" stroke-width="0.8" stroke-linecap="round"/>
<line x1="0.4" y1="-0.4" x2="4.6" y2="-0.4" transform="matrix(0.707107 0.707107 0.707107 -0.707107 31 31)" stroke="#DCDCDC" stroke-width="0.8" stroke-linecap="round"/>
</svg>
