<svg width="184" height="35" viewBox="0 0 184 35" fill="none" xmlns="http://www.w3.org/2000/svg">
<path fill-rule="evenodd" clip-rule="evenodd" d="M29.7951 23.7066C31.0907 21.4036 31.8297 18.7455 31.8297 15.9149C31.8297 7.12532 24.7044 0 15.9149 0C7.12532 0 0 7.12532 0 15.9149C0 24.7044 7.12532 31.8297 15.9149 31.8297C17.6005 31.8297 19.2249 31.5677 20.7496 31.0821L13.9929 24.3254C10.1543 23.4519 7.28943 20.0179 7.28943 15.9149C7.28943 11.1512 11.1512 7.28943 15.9149 7.28943C20.6785 7.28943 24.5403 11.1512 24.5403 15.9149C24.5403 16.6906 24.4379 17.4423 24.2459 18.1574L29.7951 23.7066Z" fill="#FC6652"/>
<rect width="20.1588" height="6.54486" rx="3.27243" transform="matrix(-0.707107 -0.707107 -0.707107 0.707107 32.675 30.1697)" fill="#494947"/>
<path d="M50.1509 25.7461C48.5326 25.7461 46.9694 25.5622 45.4614 25.1943C43.9533 24.8265 42.712 24.3484 41.7373 23.7599L43.8338 19.0151C44.7533 19.5485 45.774 19.9806 46.8958 20.3117C48.036 20.6243 49.1395 20.7806 50.2061 20.7806C50.8314 20.7806 51.3187 20.7438 51.6681 20.6703C52.036 20.5783 52.3026 20.4588 52.4681 20.3117C52.6336 20.1462 52.7164 19.9531 52.7164 19.7324C52.7164 19.3829 52.5233 19.1071 52.1371 18.9048C51.7509 18.7025 51.236 18.537 50.5923 18.4082C49.967 18.2611 49.2774 18.114 48.5234 17.9669C47.7694 17.8014 47.0062 17.5899 46.2338 17.3324C45.4797 17.0749 44.7809 16.7347 44.1372 16.3117C43.512 15.8888 43.0062 15.337 42.62 14.6566C42.2338 13.9577 42.0407 13.0934 42.0407 12.0635C42.0407 10.8681 42.3717 9.7831 43.0338 8.80841C43.7143 7.81532 44.7165 7.02453 46.0407 6.43603C47.3832 5.84754 49.0475 5.55329 51.0337 5.55329C52.3394 5.55329 53.6267 5.69122 54.8957 5.96708C56.1646 6.24293 57.3048 6.66591 58.3163 7.23602L56.3577 11.9532C55.4014 11.475 54.4727 11.1164 53.5716 10.8773C52.6888 10.6383 51.8245 10.5187 50.9785 10.5187C50.3532 10.5187 49.8567 10.5739 49.4889 10.6842C49.1211 10.7946 48.8544 10.9417 48.6889 11.1256C48.5418 11.3095 48.4682 11.5118 48.4682 11.7325C48.4682 12.0635 48.6613 12.3302 49.0475 12.5325C49.4337 12.7164 49.9394 12.8727 50.5647 13.0014C51.2084 13.1302 51.9072 13.2681 52.6612 13.4152C53.4336 13.5624 54.1968 13.7646 54.9509 14.0221C55.7049 14.2796 56.3945 14.6198 57.0198 15.0428C57.6635 15.4658 58.1784 16.0175 58.5646 16.6979C58.9508 17.3784 59.1439 18.2243 59.1439 19.2358C59.1439 20.4128 58.8037 21.4979 58.1232 22.4909C57.4612 23.4656 56.4681 24.2564 55.144 24.8633C53.8198 25.4518 52.1555 25.7461 50.1509 25.7461ZM68.8603 25.5805C67.15 25.5805 65.6328 25.2495 64.3087 24.5875C63.0029 23.907 61.9731 22.9783 61.2191 21.8013C60.4651 20.6243 60.0881 19.2726 60.0881 17.7462C60.0881 16.2198 60.4651 14.8681 61.2191 13.6911C61.9731 12.5141 63.0029 11.5946 64.3087 10.9325C65.6328 10.2705 67.15 9.93942 68.8603 9.93942C70.5706 9.93942 72.0879 10.2705 73.412 10.9325C74.7361 11.5946 75.766 12.5141 76.5016 13.6911C77.2556 14.8681 77.6326 16.2198 77.6326 17.7462C77.6326 19.2726 77.2556 20.6243 76.5016 21.8013C75.766 22.9783 74.7361 23.907 73.412 24.5875C72.0879 25.2495 70.5706 25.5805 68.8603 25.5805ZM68.8603 20.7255C69.3201 20.7255 69.7339 20.6151 70.1017 20.3944C70.4695 20.1737 70.7637 19.8427 70.9844 19.4013C71.2051 18.9416 71.3155 18.3899 71.3155 17.7462C71.3155 17.0841 71.2051 16.5416 70.9844 16.1186C70.7637 15.6773 70.4695 15.3462 70.1017 15.1255C69.7339 14.9049 69.3201 14.7945 68.8603 14.7945C68.4006 14.7945 67.9868 14.9049 67.619 15.1255C67.2512 15.3462 66.9569 15.6773 66.7362 16.1186C66.5155 16.5416 66.4052 17.0841 66.4052 17.7462C66.4052 18.3899 66.5155 18.9416 66.7362 19.4013C66.9569 19.8427 67.2512 20.1737 67.619 20.3944C67.9868 20.6151 68.4006 20.7255 68.8603 20.7255ZM79.5839 25.3047V4.83606H85.8182V25.3047H79.5839ZM94.8711 25.5805C93.6757 25.5805 92.5907 25.3415 91.616 24.8633C90.6597 24.3668 89.9057 23.6036 89.3539 22.5737C88.8022 21.5254 88.5264 20.1829 88.5264 18.5462V10.2153H94.7608V17.4703C94.7608 18.537 94.9355 19.2818 95.2849 19.7048C95.6343 20.1278 96.1125 20.3393 96.7193 20.3393C97.0872 20.3393 97.4274 20.2473 97.74 20.0634C98.071 19.8611 98.3377 19.5393 98.54 19.0979C98.7423 18.6381 98.8434 18.0404 98.8434 17.3048V10.2153H105.078V25.3047H99.1469V20.9461L100.333 22.1323C99.7998 23.3093 99.0365 24.1829 98.0435 24.753C97.0688 25.3047 96.0113 25.5805 94.8711 25.5805ZM115.126 25.5805C113.048 25.5805 111.429 25.084 110.271 24.0909C109.112 23.0794 108.533 21.5346 108.533 19.4565V6.82223H114.767V19.4013C114.767 19.8611 114.887 20.2197 115.126 20.4772C115.383 20.7346 115.696 20.8634 116.064 20.8634C116.597 20.8634 117.066 20.7255 117.471 20.4496L118.96 24.7806C118.482 25.0564 117.903 25.2587 117.222 25.3874C116.56 25.5162 115.861 25.5805 115.126 25.5805ZM106.464 15.5945V11.0429H117.857V15.5945H106.464ZM120.531 25.3047V10.2153H126.766V25.3047H120.531ZM123.649 9.00151C122.508 9.00151 121.598 8.69807 120.918 8.09118C120.237 7.48429 119.897 6.73028 119.897 5.82915C119.897 4.92801 120.237 4.174 120.918 3.56711C121.598 2.96023 122.508 2.65679 123.649 2.65679C124.789 2.65679 125.699 2.94184 126.38 3.51194C127.06 4.08205 127.4 4.81767 127.4 5.7188C127.4 6.67511 127.06 7.4659 126.38 8.09118C125.699 8.69807 124.789 9.00151 123.649 9.00151ZM137.501 25.5805C135.791 25.5805 134.274 25.2495 132.95 24.5875C131.644 23.907 130.614 22.9783 129.86 21.8013C129.106 20.6243 128.729 19.2726 128.729 17.7462C128.729 16.2198 129.106 14.8681 129.86 13.6911C130.614 12.5141 131.644 11.5946 132.95 10.9325C134.274 10.2705 135.791 9.93942 137.501 9.93942C139.212 9.93942 140.729 10.2705 142.053 10.9325C143.377 11.5946 144.407 12.5141 145.143 13.6911C145.897 14.8681 146.274 16.2198 146.274 17.7462C146.274 19.2726 145.897 20.6243 145.143 21.8013C144.407 22.9783 143.377 23.907 142.053 24.5875C140.729 25.2495 139.212 25.5805 137.501 25.5805ZM137.501 20.7255C137.961 20.7255 138.375 20.6151 138.743 20.3944C139.111 20.1737 139.405 19.8427 139.626 19.4013C139.846 18.9416 139.957 18.3899 139.957 17.7462C139.957 17.0841 139.846 16.5416 139.626 16.1186C139.405 15.6773 139.111 15.3462 138.743 15.1255C138.375 14.9049 137.961 14.7945 137.501 14.7945C137.042 14.7945 136.628 14.9049 136.26 15.1255C135.892 15.3462 135.598 15.6773 135.377 16.1186C135.157 16.5416 135.046 17.0841 135.046 17.7462C135.046 18.3899 135.157 18.9416 135.377 19.4013C135.598 19.8427 135.892 20.1737 136.26 20.3944C136.628 20.6151 137.042 20.7255 137.501 20.7255ZM158.708 9.93942C159.866 9.93942 160.914 10.1785 161.852 10.6567C162.79 11.1164 163.526 11.8428 164.059 12.8359C164.611 13.829 164.887 15.1163 164.887 16.6979V25.3047H158.652V17.7738C158.652 16.8359 158.487 16.1738 158.156 15.7876C157.825 15.383 157.374 15.1807 156.804 15.1807C156.381 15.1807 155.986 15.2819 155.618 15.4842C155.269 15.6681 154.983 15.9807 154.763 16.4221C154.56 16.8634 154.459 17.4611 154.459 18.2151V25.3047H148.225V10.2153H154.156V14.629L152.97 13.3601C153.558 12.2198 154.349 11.3647 155.342 10.7946C156.354 10.2245 157.475 9.93942 158.708 9.93942ZM173.498 25.5805C172.21 25.5805 170.941 25.4426 169.691 25.1668C168.44 24.8909 167.429 24.5323 166.656 24.0909L168.367 19.9806C169.084 20.4036 169.911 20.7346 170.849 20.9737C171.806 21.2128 172.734 21.3323 173.636 21.3323C174.39 21.3323 174.895 21.268 175.153 21.1392C175.429 21.0105 175.567 20.8358 175.567 20.6151C175.567 20.3944 175.41 20.2381 175.098 20.1462C174.785 20.0358 174.371 19.9531 173.856 19.8979C173.341 19.8427 172.771 19.7783 172.146 19.7048C171.539 19.6128 170.923 19.4841 170.298 19.3186C169.672 19.1531 169.102 18.9048 168.587 18.5738C168.072 18.2427 167.659 17.8014 167.346 17.2496C167.033 16.6795 166.877 15.9623 166.877 15.098C166.877 14.1417 167.162 13.2773 167.732 12.5049C168.321 11.7325 169.185 11.1164 170.325 10.6567C171.484 10.1785 172.909 9.93942 174.601 9.93942C175.704 9.93942 176.808 10.0406 177.911 10.2429C179.015 10.4452 179.962 10.7578 180.753 11.1808L179.042 15.2911C178.27 14.8681 177.507 14.583 176.753 14.4359C176.017 14.2704 175.327 14.1876 174.684 14.1876C173.893 14.1876 173.35 14.2612 173.056 14.4083C172.78 14.5554 172.642 14.721 172.642 14.9049C172.642 15.1255 172.799 15.2911 173.111 15.4014C173.424 15.5117 173.838 15.5945 174.353 15.6497C174.868 15.7048 175.429 15.7784 176.035 15.8704C176.661 15.9439 177.277 16.0727 177.884 16.2566C178.509 16.4221 179.079 16.6703 179.594 17.0014C180.109 17.3324 180.523 17.783 180.835 18.3531C181.148 18.9048 181.304 19.6128 181.304 20.4772C181.304 21.3783 181.019 22.2243 180.449 23.0151C179.879 23.7875 179.015 24.4127 177.856 24.8909C176.698 25.3507 175.245 25.5805 173.498 25.5805Z" fill="#494947"/>
</svg>
