<svg width="74" height="98" viewBox="0 0 74 98" fill="none" xmlns="http://www.w3.org/2000/svg">
<g filter="url(#filter0_d_3107_3)">
<rect x="10" y="10" width="54" height="78" rx="27" fill="white"/>
</g>
<path d="M38 40C38 39.4477 37.5523 39 37 39C36.4477 39 36 39.4477 36 40L38 40ZM36.2929 60.7071C36.6834 61.0976 37.3166 61.0976 37.7071 60.7071L44.0711 54.3431C44.4616 53.9526 44.4616 53.3195 44.0711 52.9289C43.6805 52.5384 43.0474 52.5384 42.6569 52.9289L37 58.5858L31.3431 52.9289C30.9526 52.5384 30.3195 52.5384 29.9289 52.9289C29.5384 53.3195 29.5384 53.9526 29.9289 54.3431L36.2929 60.7071ZM36 40L36 60L38 60L38 40L36 40Z" fill="#494947"/>
<defs>
<filter id="filter0_d_3107_3" x="0" y="0" width="74" height="98" filterUnits="userSpaceOnUse" color-interpolation-filters="sRGB">
<feFlood flood-opacity="0" result="BackgroundImageFix"/>
<feColorMatrix in="SourceAlpha" type="matrix" values="0 0 0 0 0 0 0 0 0 0 0 0 0 0 0 0 0 0 127 0" result="hardAlpha"/>
<feOffset/>
<feGaussianBlur stdDeviation="5"/>
<feColorMatrix type="matrix" values="0 0 0 0 0 0 0 0 0 0 0 0 0 0 0 0 0 0 0.25 0"/>
<feBlend mode="normal" in2="BackgroundImageFix" result="effect1_dropShadow_3107_3"/>
<feBlend mode="normal" in="SourceGraphic" in2="effect1_dropShadow_3107_3" result="shape"/>
</filter>
</defs>
</svg>
